<svg width="512" height="512" viewBox="0 0 512 512" fill="none" xmlns="http://www.w3.org/2000/svg">
<path d="M371.613 227.096V232.891C371.613 239.992 372.758 247.046 375.003 253.782L388.129 293.16H412.903V202.321H396.387C382.705 202.322 371.613 213.413 371.613 227.096Z" fill="#5A4146"/>
<path d="M484.684 244.251L470.71 293.161L404.645 235.355C395.523 235.355 388.129 227.96 388.129 218.839C388.129 205.157 399.221 194.065 412.903 194.065H470.709C479.831 194.065 487.225 201.46 487.225 210.581V226.103C487.226 232.24 486.37 238.348 484.684 244.251Z" fill="#694B4B"/>
<path d="M454.188 317.94H404.64V354.489H454.188V317.94Z" fill="#E6AF78"/>
<path d="M404.645 333.104C412.304 336.216 420.656 337.968 429.419 337.968C438.182 337.968 446.534 336.216 454.193 333.104V317.935H404.645V333.104Z" fill="#D29B6E"/>
<path d="M494.031 349.351L454.191 337.969L429.419 354.408L404.645 337.968L364.807 349.351C354.171 352.39 346.839 362.111 346.839 373.172V433.548C346.839 438.109 350.536 441.806 355.097 441.806H503.742C508.303 441.806 512 438.109 512 433.548V373.172C512 362.11 504.667 352.39 494.031 349.351Z" fill="#222831"/>
<path d="M437.677 441.805H421.161L425.29 354.484H433.548L437.677 441.805Z" fill="#707487"/>
<path d="M429.419 326.193C402.054 326.193 379.871 304.009 379.871 276.645V266.97C379.871 262.59 381.611 258.389 384.708 255.291L399.683 240.316C402.854 237.145 407.19 235.322 411.672 235.463C438.07 236.296 461.436 241.951 474.209 254.426C477.336 257.48 478.968 261.752 478.968 266.122V276.645C478.968 304.01 456.784 326.193 429.419 326.193Z" fill="#F0C087"/>
<path d="M404.645 269.018C404.645 259.492 412.645 251.92 422.152 252.526C438.823 253.59 463.561 256.376 478.738 263.676C478.243 260.192 476.746 256.903 474.209 254.425C461.436 241.95 438.07 236.295 411.672 235.462L411.671 235.463V235.462C407.19 235.321 402.853 237.145 399.683 240.315L384.709 255.289C381.611 258.386 379.871 262.587 379.871 266.968V276.643C379.871 299.239 395.012 318.264 415.691 324.222C408.808 315.73 404.646 304.95 404.646 293.159L404.645 269.018Z" fill="#E6AF78"/>
<path d="M478.968 397.779C478.968 391.208 481.578 384.907 486.224 380.261L507.481 359.004C510.322 363.065 512 367.954 512 373.173V433.549C512 438.11 508.303 441.807 503.742 441.807H478.968V397.779Z" fill="#222831"/>
<path d="M433.548 371H425.29C423.01 371 421.161 369.151 421.161 366.871V354.484H437.677V366.871C437.677 369.151 435.829 371 433.548 371Z" fill="#959CB5"/>
<path d="M429.419 354.409L415.422 365.1C413.011 366.942 409.525 366.204 408.068 363.542L395.512 340.612L400.566 332.903C401.687 331.193 404.076 330.902 405.575 332.292L429.419 354.409Z" fill="#484B50"/>
<path d="M429.419 354.409L443.416 365.101C445.827 366.943 449.313 366.205 450.77 363.543L463.326 340.613L458.272 332.904C457.151 331.194 454.762 330.903 453.263 332.293L429.419 354.409Z" fill="#484B50"/>
<path d="M147.822 322.745C140.765 304.047 135.168 271.904 133.959 255.169C131.659 223.323 107.66 197.363 75.218 197.363C42.776 197.363 18.777 223.324 16.477 255.169C15.268 271.903 9.67101 304.047 2.61401 322.745C1.05901 326.867 2.85401 331.412 6.91301 333.252C14.475 336.679 30.598 343.393 50.043 346.008H100.392C119.746 343.387 135.982 336.669 143.522 333.252C147.582 331.412 149.377 326.867 147.822 322.745Z" fill="#5A4146"/>
<path d="M143.523 333.253C147.581 331.413 149.377 326.868 147.821 322.746C140.765 304.048 135.167 271.905 133.959 255.17C131.66 223.324 107.66 197.364 75.219 197.364C75.137 197.364 75.056 197.364 74.974 197.365C50.081 197.466 41.284 231.415 62.713 244.082C64 244.843 64.825 245.209 64.825 245.209L83.594 346.009H100.393C119.747 343.386 135.983 336.669 143.523 333.253Z" fill="#694B4B"/>
<path d="M134.95 362.588L108.226 349.227C102.63 346.429 99.095 340.709 99.096 334.453L99.098 309.678H49.548V334.454C49.548 340.71 46.014 346.428 40.418 349.226L13.694 362.588C5.301 366.784 0 375.362 0 384.745V433.547C0 438.107 3.697 441.805 8.258 441.805H140.387C144.948 441.805 148.645 438.107 148.645 433.547V384.746C148.645 375.362 143.343 366.784 134.95 362.588Z" fill="#E6AF78"/>
<path d="M74.323 342.709C83.215 342.709 91.732 340.876 99.54 337.613C99.335 336.572 99.096 335.537 99.096 334.452L99.098 309.677H49.548V334.453C49.548 335.544 49.309 336.584 49.102 337.629C56.915 340.875 65.428 342.709 74.323 342.709Z" fill="#D29B6E"/>
<path d="M134.95 362.588L115.912 353.069C107.084 366.701 91.773 375.742 74.323 375.742C56.873 375.742 41.561 366.701 32.733 353.068L13.695 362.588C5.302 366.784 0 375.362 0 384.745V433.547C0 438.108 3.697 441.805 8.258 441.805H140.387C144.948 441.805 148.645 438.108 148.645 433.547V384.746C148.645 375.362 143.343 366.784 134.95 362.588Z" fill="#222831"/>
<path d="M74.323 326.193C49.131 326.193 28.331 307.393 25.186 283.058C24.73 279.532 26.425 276.075 29.599 274.474C33.401 272.556 38.926 269.322 44.216 264.602C50.107 259.346 53.563 253.803 55.515 249.734C57.196 246.23 61.06 244.248 64.826 245.209C93.902 252.625 113.697 267.752 120.879 273.928C122.807 275.586 123.918 278.031 123.72 280.567C121.719 306.097 100.368 326.193 74.323 326.193Z" fill="#F0C087"/>
<path d="M120.878 273.927C113.697 267.751 93.901 252.624 64.825 245.208C61.059 244.247 57.195 246.229 55.514 249.733C54.036 252.815 51.593 256.741 47.968 260.749C47.967 260.759 47.964 260.767 47.963 260.777C46.838 262.052 45.64 263.33 44.216 264.602C38.926 269.323 33.401 272.556 29.599 274.474C26.425 276.075 24.731 279.533 25.186 283.059C28.011 304.914 45.113 322.31 66.811 325.628C56.924 318.902 49.549 309.652 49.549 293.162V281.386C51.425 280.001 53.314 278.62 55.212 276.926C59.802 272.83 63.809 268.093 67.022 262.993C89.265 269.934 104.345 281.495 110.062 286.411C111.627 287.783 115.511 291.363 120.055 295.626C122.01 290.921 123.303 285.873 123.718 280.568C123.917 278.031 122.806 275.586 120.878 273.927Z" fill="#E6AF78"/>
<path d="M5.034 369.859C1.853 374.081 0 379.26 0 384.745V433.547C0 438.108 3.697 441.805 8.258 441.805H33.032V400.195C33.032 395.178 30.751 390.432 26.833 387.298L5.034 369.859Z" fill="#484B50"/>
<path d="M374.643 351.318L305.548 326.192L256 342.709L206.452 326.193L137.357 351.319C124.303 356.066 115.613 368.472 115.613 382.362V433.548C115.613 438.108 119.31 441.806 123.871 441.806H388.129C392.69 441.806 396.387 438.108 396.387 433.548V382.362C396.387 368.471 387.698 356.065 374.643 351.318Z" fill="#FF507D"/>
<path d="M247.349 359.226L239.484 441.805H272.516L264.651 359.226H247.349Z" fill="#707487"/>
<path d="M264.67 370.571H247.33C244.137 370.571 241.549 367.983 241.549 364.79V342.709H270.45V364.79C270.451 367.982 267.863 370.571 264.67 370.571Z" fill="#5B5D6E"/>
<path d="M387.498 359.855C393.074 365.84 396.387 373.811 396.387 382.361V433.547C396.387 438.108 392.69 441.805 388.129 441.805H346.839V414.197C346.839 405.436 350.319 397.034 356.514 390.84L387.498 359.855Z" fill="#D23C69"/>
<path d="M346.839 155.889V86.709C346.839 77.587 339.444 70.193 330.323 70.193H231.226C194.74 70.193 165.161 99.771 165.161 136.258V155.889C165.161 164.765 166.592 173.583 169.399 182.003L172.148 190.25C172.99 192.776 173.419 195.421 173.419 198.084V202.322H338.58V198.084C338.58 195.421 339.009 192.776 339.851 190.25L342.6 182.003C345.408 173.582 346.839 164.764 346.839 155.889Z" fill="#5A4146"/>
<path d="M206.452 103.741C206.452 122.269 221.472 137.289 240 137.289H244.645L246.887 202.321H338.58V198.083C338.58 195.42 339.009 192.775 339.851 190.249L342.6 182.002C345.407 173.582 346.838 164.764 346.838 155.888V86.709C346.838 77.587 339.443 70.193 330.322 70.193H240C221.472 70.193 206.452 85.213 206.452 103.741Z" fill="#694B4B"/>
<path d="M305.55 268.39H206.45V342.71H305.55V268.39Z" fill="#E6AF78"/>
<path d="M206.452 296.31C221.04 304.761 237.929 309.676 256 309.676C274.071 309.676 290.961 304.761 305.548 296.31V268.386H206.451L206.452 296.31Z" fill="#D29B6E"/>
<path d="M256 342.709L229.662 369.047C226.122 372.587 220.271 372.188 217.245 368.2L189.936 332.216L197.079 317.163C199.187 312.721 204.685 311.093 208.871 313.673L256 342.709Z" fill="#D23C69"/>
<path d="M256 342.709L282.338 369.047C285.878 372.587 291.729 372.188 294.755 368.2L322.064 332.216L314.921 317.163C312.813 312.721 307.315 311.093 303.129 313.673L256 342.709Z" fill="#D23C69"/>
<path d="M256 293.161C210.392 293.161 173.419 256.188 173.419 210.58V200.905C173.419 196.525 175.159 192.324 178.256 189.226L185.097 182.385C188.194 179.288 189.934 175.087 189.934 170.706V150.91C189.934 147.086 192.502 143.764 196.223 142.885C215.754 138.272 276.531 127.345 317.892 157.765C320.578 159.74 322.063 162.985 322.063 166.319V170.706C322.063 175.086 323.803 179.287 326.9 182.385L333.741 189.226C336.838 192.323 338.578 196.524 338.578 200.905V210.58C338.581 256.188 301.608 293.161 256 293.161Z" fill="#F0C087"/>
<path d="M317.893 157.766C288.803 136.371 250.162 135.445 222.968 138.374C211.497 139.609 202.019 141.518 196.225 142.886C192.504 143.765 189.936 147.087 189.936 150.911V170.706C189.936 175.087 188.196 179.288 185.098 182.386L178.257 189.227C175.159 192.325 173.419 196.526 173.419 200.907V210.581C173.419 252.805 205.129 287.566 246.021 292.501C231.772 277.662 222.967 257.553 222.967 235.355V174.994C222.967 166.625 229.19 159.631 237.493 158.59C257.311 156.105 293.609 154.611 322.063 170.708V166.32C322.065 162.986 320.577 159.74 317.893 157.766Z" fill="#E6AF78"/>
<path d="M124.502 359.855C118.926 365.84 115.613 373.811 115.613 382.361V433.547C115.613 438.108 119.31 441.805 123.871 441.805H165.161V414.197C165.161 405.436 161.681 397.034 155.486 390.84L124.502 359.855Z" fill="#D23C69"/>
</svg>
