<svg width="512" height="512" viewBox="0 0 512 512" fill="none" xmlns="http://www.w3.org/2000/svg">
<g clip-path="url(#clip0)">
<path d="M512 256.001C512 276.362 500.32 293.863 481.509 301.663L68.412 473.08C51.376 480.148 31.646 477.375 17.1 464.79C2.85899 452.46 -3.10101 433.449 1.55899 415.198L38.33 271.002L42.15 256.001L38.33 241L1.55899 96.805C-3.10101 78.554 2.85899 59.543 17.1 47.213C31.184 35.028 50.827 31.627 68.412 38.923L481.509 210.34C500.32 218.14 512 235.641 512 256.001Z" fill="#222831"/>
<path d="M38.331 271.002L1.55899 415.198C-3.10101 433.449 2.85899 452.459 17.1 464.79C31.646 477.376 51.376 480.149 68.412 473.08L481.509 301.663C500.32 293.863 512 276.362 512 256.001H42.151L38.331 271.002Z" fill="#434851"/>
<path d="M233.349 256.001C233.349 264.281 226.639 271.002 218.348 271.002H38.331L42.151 256.001L38.331 241H218.348C226.638 241.001 233.349 247.721 233.349 256.001Z" fill="#EFEFEF"/>
<path d="M38.331 271.002H218.348C226.638 271.002 233.349 264.282 233.349 256.001H42.151L38.331 271.002Z" fill="#C5D8DF"/>
</g>
<defs>
<clipPath id="clip0">
<rect width="512" height="512" fill="white"/>
</clipPath>
</defs>
</svg>
