<svg width="512" height="512" viewBox="0 0 512 512" fill="none" xmlns="http://www.w3.org/2000/svg">
<g clip-path="url(#clip0)">
<path d="M437.019 74.9812C388.667 26.6288 324.38 0 256 0C187.62 0 123.333 26.6288 74.9812 74.9812C26.6298 123.334 0 187.62 0 256.001C0 324.381 26.6288 388.667 74.9812 437.02C123.334 485.372 187.62 512.001 256.001 512.001C324.381 512.001 388.667 485.372 437.02 437.02C485.372 388.667 512.001 324.381 512.001 256.001C512 187.62 485.371 123.333 437.019 74.9812V74.9812ZM415.805 415.805C373.119 458.49 316.366 481.998 256 481.998C195.633 481.998 138.88 458.49 96.1938 415.805C53.5096 373.12 30.0009 316.366 30.0009 256.001C30.0009 195.635 53.5096 138.88 96.1948 96.1948C138.88 53.5086 195.634 30.0009 256 30.0009C316.365 30.0009 373.119 53.5086 415.805 96.1948C458.49 138.88 481.998 195.634 481.998 256.001C481.998 316.367 458.49 373.12 415.805 415.805V415.805Z" fill="#434851"/>
<path d="M165.037 252.348C193.512 252.348 216.678 229.182 216.678 200.707C216.678 172.232 193.512 149.065 165.037 149.065C136.562 149.065 113.395 172.232 113.395 200.707C113.395 229.182 136.562 252.348 165.037 252.348V252.348ZM165.037 179.067C176.969 179.067 186.677 188.776 186.677 200.708C186.677 212.64 176.969 222.349 165.037 222.349C153.104 222.349 143.396 212.64 143.396 200.708C143.396 188.776 153.104 179.067 165.037 179.067V179.067Z" fill="#434851"/>
<path d="M345.371 252.348C373.846 252.348 397.013 229.182 397.013 200.707C397.013 172.232 373.846 149.065 345.371 149.065C316.896 149.065 293.73 172.232 293.73 200.707C293.73 229.182 316.895 252.348 345.371 252.348ZM345.371 179.067C357.303 179.067 367.012 188.776 367.012 200.708C367.012 212.64 357.303 222.349 345.371 222.349C333.439 222.349 323.73 212.64 323.73 200.708C323.73 188.776 333.438 179.067 345.371 179.067Z" fill="#434851"/>
<path d="M407.156 284.649H104.86C96.5758 284.649 89.8596 291.366 89.8596 299.65C89.8596 338.743 107.44 375.36 139.361 402.756C170.628 429.589 212.053 444.366 256.009 444.366C299.964 444.366 341.389 429.589 372.656 402.756C404.577 375.361 422.157 338.744 422.157 299.65C422.156 291.366 415.44 284.649 407.156 284.649V284.649ZM390.996 314.65C389.77 322.526 387.59 330.154 384.561 337.448H127.455C124.425 330.155 122.246 322.526 121.02 314.65H390.996ZM256.007 414.365C211.017 414.365 171.058 395.878 146.255 367.449H365.76C340.957 395.877 300.999 414.365 256.007 414.365Z" fill="#434851"/>
</g>
<defs>
<clipPath id="clip0">
<rect width="512" height="512" fill="white"/>
</clipPath>
</defs>
</svg>
